<svg xmlns="http://www.w3.org/2000/svg" viewBox="0 0 500 500"><g id="freepik--background-simple--inject-125"><path d="M380.34,115c-3.2-6.85-6.55-13.6-10.36-20C326,20.82,208-19.57,149.6,57.11c-13.93,18.28-18.78,40.36-28.15,61.32C100.13,166.1,60.3,194.6,35.32,238.74,16,273,18.54,316.81,29.34,353.8c11.74,40.2,32.39,68.27,65.43,89.61,37,23.92,76.65,17.28,116.68,9,18-3.75,36.56-7.57,55-6.14,23.05,1.79,45.8,9,68.67,12.5,23.78,3.64,48.45,4.51,71.36-3.43,73.36-25.43,90.74-144.58,60.57-212.83-10.68-24.16-28.77-42.8-45.58-61.71C403.3,160.35,392.18,140.37,380.34,115Z" style="fill:#35E4EF"></path><path d="M380.34,115c-3.2-6.85-6.55-13.6-10.36-20C326,20.82,208-19.57,149.6,57.11c-13.93,18.28-18.78,40.36-28.15,61.32C100.13,166.1,60.3,194.6,35.32,238.74,16,273,18.54,316.81,29.34,353.8c11.74,40.2,32.39,68.27,65.43,89.61,37,23.92,76.65,17.28,116.68,9,18-3.75,36.56-7.57,55-6.14,23.05,1.79,45.8,9,68.67,12.5,23.78,3.64,48.45,4.51,71.36-3.43,73.36-25.43,90.74-144.58,60.57-212.83-10.68-24.16-28.77-42.8-45.58-61.71C403.3,160.35,392.18,140.37,380.34,115Z" style="fill:#fff;opacity:0.8"></path></g><g id="freepik--Table--inject-125"><line x1="15.25" y1="384.58" x2="480.78" y2="384.58" style="fill:none;stroke:#263238;stroke-linecap:round;stroke-linejoin:round"></line></g><g id="freepik--Pictures--inject-125"><rect x="60.88" y="47.97" width="153.09" height="199.66" style="fill:none;stroke:#263238;stroke-linecap:round;stroke-linejoin:round"></rect><rect x="71.42" y="61.72" width="132.01" height="172.17" style="fill:none;stroke:#263238;stroke-linecap:round;stroke-linejoin:round"></rect><rect x="106.98" y="108.09" width="60.9" height="79.42" style="fill:none;stroke:#263238;stroke-linecap:round;stroke-linejoin:round"></rect><rect x="390.35" y="67.02" width="66.78" height="87.09" style="fill:none;stroke:#263238;stroke-linecap:round;stroke-linejoin:round"></rect><rect x="394.95" y="73.02" width="57.59" height="75.1" style="fill:none;stroke:#263238;stroke-linecap:round;stroke-linejoin:round"></rect><rect x="410.46" y="93.25" width="26.56" height="34.64" style="fill:none;stroke:#263238;stroke-linecap:round;stroke-linejoin:round"></rect><rect x="334.76" y="41.34" width="47.19" height="61.54" style="fill:none;stroke:#263238;stroke-linecap:round;stroke-linejoin:round"></rect><rect x="338.01" y="45.58" width="40.69" height="53.07" style="fill:none;stroke:#263238;stroke-linecap:round;stroke-linejoin:round"></rect><rect x="348.97" y="59.87" width="18.77" height="24.48" style="fill:none;stroke:#263238;stroke-linecap:round;stroke-linejoin:round"></rect></g><g id="freepik--Plant--inject-125"><path d="M293.19,143.21c10.23-7.61,17.63-5.61,15.79-2.94s-2.1,3.17-13,7.27a103.46,103.46,0,0,0-18.7,9.67,16.93,16.93,0,0,0-.26,3.2,25.41,25.41,0,0,0,2.33,9.82,48.84,48.84,0,0,1,5.61-6.65s14.9-6,23.18-7.9,9.74-.9,6.34,4-8.2,6.68-17,10.35a74.38,74.38,0,0,0-13.85,7.57,83.53,83.53,0,0,0,7,8.52,12,12,0,0,1,5.23-5.93c6.11-3.77,20.67-7.25,23.48-9.39s5.78,5.68-9.12,11.63c-8.68,3.47-12.78,6.68-14.7,8.75q5,4.91,9.69,8.83c1.52-1.11,3.64-2.59,6.55-4.58,15.3-10.41,16.38-5.65,9.68.84-4.57,4.42-9,6.53-10.68,8.16,3,2.29,5.9,4.28,8.59,6,1.06-1.52,3.12-3.49,9-4.23,10.75-1.36,7.93,1,1.28,6a30.26,30.26,0,0,0-3.1,2.54c3.71,2.11,6.81,3.66,9.07,4.8l3.34,1.68a7,7,0,0,1,1.94-3.15c3.34-2.87,5,3.85,2.27,5.28a69,69,0,0,0,7.21-3.51c-.84-1.48-2.51-1.82-1.17-4.46,1.59-3.16,4.55-3.08,7.14.68a33.49,33.49,0,0,0,6.1-5.55c-2.46-2.58-6-5.37-4.86-7s5.37-.13,8.72,1.17c1.61-2.72,3.23-5.69,4.79-8.83-2.79-.39-6.39-1.29-7.89-3.34-2.62-3.58-2-6.3.46-6.21,1.9.06,6.64,2.12,10.19,3.58,1.21-2.8,2.33-5.69,3.33-8.63-3.91-.76-9.17-1.48-10.93-4.82-2.8-5.33.69-5.45,11-.11.46.24.89.45,1.31.64a77.14,77.14,0,0,0,2.35-11c-5-2.41-13.3-3.67-19.74-6.66-9.31-4.31-1.72-7.78,1-7.18,2,.44,13,6.33,19.19,9.31a39.69,39.69,0,0,0-2.34-16.95c-5.42-1.31-14.27-1.93-19.45-3.16-7.41-1.75-10-5.83-2.33-4.56,5.42.89,14.77,3.16,19.9,3.81a29.51,29.51,0,0,0-9.5-9.92,58.25,58.25,0,0,0-15.13-6.91c-3.67,1.23-6.74,3.26-8.13,3.35-2.5.16-.16-2.49.41-4.46a2.48,2.48,0,0,1,.2-.5c-10-1.36-20,.67-25.75,9.34.56-.83-6.67-3.83-7.16-3.94-5.4-1.3-11.18,1.13-16,3.46-5.61,2.7-9.64,7.62-12.68,12.93-1.25,2.17-2.58,4.37-3.7,6.66C281.31,150.23,285.59,148.86,293.19,143.21Z" style="fill:#35E4EF"></path><path d="M340,230.9c5.46-4.07,9.41-3,8.43-1.57s-1.12,1.69-6.91,3.88a55.55,55.55,0,0,0-10,5.16,9.7,9.7,0,0,0-.13,1.71,13.59,13.59,0,0,0,1.24,5.25,25.79,25.79,0,0,1,3-3.55A120,120,0,0,1,348,237.56c4.43-1,5.2-.48,3.38,2.11s-4.37,3.57-9.1,5.53a39.34,39.34,0,0,0-7.39,4,44.5,44.5,0,0,0,3.75,4.55,6.38,6.38,0,0,1,2.79-3.17c3.26-2,11-3.87,12.54-5s3.08,3-4.87,6.21c-4.64,1.85-6.83,3.56-7.85,4.67,1.76,1.75,3.49,3.31,5.17,4.71.81-.59,1.94-1.38,3.5-2.44,8.17-5.56,8.74-3,5.17.45-2.44,2.36-4.83,3.48-5.7,4.36,1.61,1.22,3.14,2.28,4.58,3.21.57-.81,1.67-1.86,4.78-2.26,5.75-.73,4.24.55.69,3.21a16.66,16.66,0,0,0-1.66,1.36c2,1.13,3.64,2,4.85,2.56l1.78.9a3.65,3.65,0,0,1,1-1.68c1.79-1.53,2.69,2.05,1.22,2.82a37.71,37.71,0,0,0,3.84-1.88c-.44-.78-1.33-1-.62-2.38.85-1.69,2.43-1.64,3.81.36a17.47,17.47,0,0,0,3.26-3c-1.31-1.38-3.2-2.87-2.59-3.76s2.86-.07,4.65.63c.86-1.45,1.73-3,2.56-4.72-1.49-.21-3.41-.68-4.21-1.78-1.4-1.91-1.08-3.36.24-3.32,1,0,3.54,1.13,5.44,1.91.65-1.49,1.25-3,1.78-4.6-2.09-.41-4.9-.79-5.83-2.58-1.5-2.84.36-2.91,5.85-.06l.7.35a41,41,0,0,0,1.25-5.87c-2.67-1.28-7.1-2-10.54-3.55-5-2.3-.92-4.15.53-3.84,1.09.24,7,3.38,10.25,5a21.21,21.21,0,0,0-1.25-9.05c-2.9-.7-7.62-1-10.39-1.69-4-.94-5.34-3.11-1.24-2.44,2.89.48,7.88,1.69,10.62,2a15.74,15.74,0,0,0-5.07-5.3,31.17,31.17,0,0,0-8.08-3.69c-2,.66-3.6,1.74-4.34,1.79-1.33.09-.08-1.33.22-2.38a1.09,1.09,0,0,1,.11-.27c-5.34-.72-10.66.36-13.75,5,.3-.45-3.56-2-3.83-2.11-2.88-.69-6,.61-8.54,1.85a16.37,16.37,0,0,0-6.78,6.91c-.66,1.16-1.37,2.33-2,3.55C333.61,234.65,335.9,233.92,340,230.9Z" style="fill:#35E4EF"></path><path d="M290.32,291c5.46-4.06,9.41-3,8.43-1.56s-1.12,1.69-6.91,3.88a55.55,55.55,0,0,0-10,5.16,8.84,8.84,0,0,0-.13,1.71,13.63,13.63,0,0,0,1.24,5.25,25.66,25.66,0,0,1,3-3.56,121.36,121.36,0,0,1,12.38-4.21c4.42-1,5.2-.49,3.38,2.11s-4.38,3.57-9.1,5.53a39.34,39.34,0,0,0-7.39,4A43.31,43.31,0,0,0,289,313.9a6.4,6.4,0,0,1,2.79-3.16c3.26-2,11-3.87,12.54-5s3.08,3-4.87,6.21c-4.64,1.85-6.83,3.56-7.85,4.67,1.76,1.75,3.49,3.31,5.17,4.71.81-.59,1.94-1.38,3.5-2.44,8.17-5.56,8.74-3,5.16.45-2.43,2.36-4.82,3.48-5.7,4.35q2.43,1.83,4.59,3.22c.56-.81,1.67-1.87,4.78-2.26,5.74-.73,4.24.55.69,3.21a16.66,16.66,0,0,0-1.66,1.36c2,1.13,3.64,2,4.84,2.56l1.79.9a3.65,3.65,0,0,1,1-1.68c1.78-1.53,2.69,2.05,1.22,2.82a37.71,37.71,0,0,0,3.84-1.88c-.44-.79-1.33-1-.62-2.38.85-1.69,2.43-1.64,3.81.36a17.47,17.47,0,0,0,3.26-3c-1.31-1.38-3.2-2.87-2.59-3.76s2.86-.07,4.65.63c.86-1.46,1.73-3,2.56-4.72-1.49-.21-3.41-.69-4.22-1.78-1.39-1.91-1.07-3.37.25-3.32,1,0,3.54,1.13,5.44,1.91.65-1.49,1.25-3,1.78-4.61-2.09-.4-4.9-.79-5.84-2.57-1.49-2.84.37-2.91,5.86-.06l.69.35a41,41,0,0,0,1.26-5.87c-2.67-1.29-7.1-2-10.54-3.55-5-2.3-.92-4.16.53-3.84,1.08.24,6.95,3.38,10.25,5a21.26,21.26,0,0,0-1.26-9.06c-2.89-.69-7.61-1-10.38-1.68-4-.94-5.34-3.11-1.25-2.44,2.9.48,7.89,1.69,10.63,2a15.74,15.74,0,0,0-5.07-5.3,31.33,31.33,0,0,0-8.08-3.69c-2,.66-3.6,1.74-4.34,1.79-1.33.09-.09-1.33.22-2.38a1.08,1.08,0,0,1,.1-.27c-5.33-.72-10.65.36-13.74,5,.29-.45-3.56-2-3.83-2.11-2.88-.69-6,.61-8.54,1.85a16.41,16.41,0,0,0-6.78,6.9c-.66,1.16-1.37,2.34-2,3.56C284,294.76,286.27,294,290.32,291Z" style="fill:#35E4EF"></path><path d="M324.39,229.42c-6.83-5.87-12.14-4.82-11-2.85s1.32,2.33,8.76,5.76a73,73,0,0,1,12.7,7.74,12.27,12.27,0,0,1,0,2.27,17.88,17.88,0,0,1-2.13,6.8,33.85,33.85,0,0,0-3.62-5s-10.2-4.93-15.94-6.71-6.82-1.12-4.66,2.47,5.45,5.11,11.5,8.14a51.71,51.71,0,0,1,9.38,6,60.37,60.37,0,0,1-5.36,5.66,8.52,8.52,0,0,0-3.4-4.44c-4.11-3-14.2-6.12-16.08-7.77s-4.35,3.71,5.86,8.64c5.94,2.87,8.67,5.33,9.92,6.89-2.49,2.14-4.92,4.05-7.26,5.74-1-.86-2.44-2-4.39-3.55-10.27-8.09-11.26-4.79-6.86.11,3,3.34,6,5.05,7.12,6.28-2.24,1.46-4.37,2.72-6.35,3.82-.67-1.12-2-2.61-6.1-3.43-7.51-1.49-5.64.33-1.21,4.18a20.43,20.43,0,0,1,2.07,1.95c-2.72,1.3-5,2.23-6.63,2.92l-2.44,1a4.83,4.83,0,0,0-1.21-2.32c-2.21-2.19-3.73,2.46-1.86,3.61a47.89,47.89,0,0,1-4.9-2.83c.66-1,1.85-1.16,1-3.09-1-2.3-3.05-2.39-5.06.13a23.86,23.86,0,0,1-4-4.21c1.86-1.7,4.5-3.49,3.77-4.72s-3.77-.36-6.19.39c-1-2-2-4.17-2.94-6.46,2-.14,4.56-.59,5.72-2,2-2.39,1.74-4.34,0-4.4-1.34-.05-4.78,1.17-7.35,2-.72-2-1.36-4.13-1.92-6.25,2.79-.33,6.54-.58,7.94-2.85,2.23-3.61-.22-3.87-7.72-.62-.33.15-.65.27-.95.39a54.89,54.89,0,0,1-1.12-7.86c3.65-1.45,9.56-1.92,14.24-3.71,6.78-2.57,1.6-5.39-.34-5.11-1.45.21-9.49,3.82-14,5.62a28,28,0,0,1,2.49-11.83c3.88-.66,10.15-.66,13.86-1.27,5.3-.86,7.33-3.61,1.87-3.09-3.87.36-10.57,1.5-14.21,1.7a20.69,20.69,0,0,1,7.18-6.52,41.17,41.17,0,0,1,11-4.12c2.53,1.05,4.59,2.63,5.56,2.76,1.75.24.24-1.75-.06-3.16A2.29,2.29,0,0,0,289,212c7.11-.46,14,1.46,17.68,7.86-.36-.61,4.88-2.36,5.24-2.42,3.86-.65,7.82,1.35,11.1,3.23,3.82,2.18,6.41,5.85,8.3,9.74.77,1.59,1.6,3.21,2.27,4.87C332.41,235,329.46,233.78,324.39,229.42Z" style="fill:#35E4EF"></path><path d="M290.5,202.8c-.55-5.5-7.41-8.73-11.64-8.88,0,0-8.15-8.75-13.86-9.2s-12.76,1.8-15.45,7.43-5.46,27.69-5.46,27.69,8.1-2,17-3.48l.11-.15s6.8-9.23,6.71-6.74c-.05,1.57-1.54,4.37-2.63,6.23,1.85-.26,3.68-.49,5.42-.65a40,40,0,0,0,7.63-1.48c.55-3.44,1.46-8.49,2.12-6.65a48.16,48.16,0,0,1,1.41,5.36C287.36,209.87,290.85,206.3,290.5,202.8Z" style="fill:#35E4EF"></path><path d="M335.66,297c.94-5.45,8-8.19,12.23-8,0,0,8.75-8.16,14.48-8.21s12.6,2.69,14.89,8.49,3.5,28,3.5,28-7.94-2.55-16.66-4.66l-.1-.16s-6.14-9.68-6.23-7.19c0,1.57,1.23,4.47,2.19,6.4-1.82-.39-3.63-.75-5.36-1a40.08,40.08,0,0,1-7.5-2c-.32-3.47-.86-8.57-1.65-6.78a46.23,46.23,0,0,0-1.78,5.24C338.3,304.24,335.06,300.44,335.66,297Z" style="fill:#35E4EF"></path><path d="M321,385.32c-.14-4.63-.29-11.44-.45-19.33-.8-38-2.28-108.63-7.66-136.47-6.26-32.43-31.4-31.14-32.47-31.06l-.14-2c.28,0,28-1.53,34.58,32.68,5.4,28,6.89,98.79,7.69,136.81.16,7.88.31,14.69.45,19.3Z" style="fill:#35E4EF"></path><rect x="324.15" y="142.43" width="2" height="242.12" transform="translate(-1.72 2.14) rotate(-0.38)" style="fill:#35E4EF"></rect><path d="M329.76,384.76c-.2-4.92-4.93-120.74.61-144.9,1.78-7.75,5.23-12.81,10.26-15,8-3.5,16.82,1.43,17.19,1.64l-1,1.74c-.09-.05-8.38-4.65-15.41-1.55-4.42,2-7.48,6.54-9.11,13.63-5.48,23.91-.61,143.17-.56,144.38Z" style="fill:#35E4EF"></path><path d="M333.72,384.5c-.78-9.13-7.42-89.38.77-95.69,3.57-2.76,8.18-3,13.32-.74a27.71,27.71,0,0,1,6.57,4.18L353,293.74c-.1-.09-10.1-8.93-17.33-3.35-1.38,1.06-4.41,8-2.8,48.89.89,22.65,2.78,44.83,2.8,45.05Z" style="fill:#35E4EF"></path><path d="M318.18,384.3l-2-.12c6.6-116.15,4.69-162.71,1.94-164.77-7-3.83-18.69,6.1-18.81,6.2L298,224.09c.52-.44,12.83-10.93,21.09-6.43,1.61.87,5.38,2.93,2.71,85.34C320.49,343.45,318.2,383.89,318.18,384.3Z" style="fill:#35E4EF"></path></g><g id="freepik--record-player--inject-125"><polygon points="358.71 367.5 363.35 266.19 458.29 263.88 453.08 375.32 430.49 376.06 358.71 367.5" style="fill:#fff;stroke:#263238;stroke-linecap:round;stroke-linejoin:round"></polygon><polygon points="344.82 259.83 363.35 266.19 458.29 263.88 436.29 255.49 344.82 259.83" style="fill:#fff;stroke:#263238;stroke-linecap:round;stroke-linejoin:round"></polygon><polygon points="430.49 376.06 436.29 255.49 458.29 263.88 453.08 375.32 430.49 376.06" style="fill:#263238;stroke:#263238;stroke-linecap:round;stroke-linejoin:round"></polygon><polygon points="344.82 259.83 341.64 364.61 360.13 366.89 363.35 266.19 344.82 259.83" style="fill:#263238;stroke:#263238;stroke-linecap:round;stroke-linejoin:round"></polygon><polygon points="244.55 372.42 336.46 392.74 337.67 427.93 246.67 400.32 244.55 372.42" style="fill:#35E4EF;stroke:#263238;stroke-linecap:round;stroke-linejoin:round"></polygon><polygon points="336.46 392.74 430.49 376.06 430.49 405.78 337.67 427.93 336.46 392.74" style="fill:#263238;stroke:#263238;stroke-linecap:round;stroke-linejoin:round"></polygon><polygon points="430.49 376.06 333.12 361.19 244.55 372.42 336.46 392.74 430.49 376.06" style="fill:#fff;stroke:#263238;stroke-linecap:round;stroke-linejoin:round"></polygon><path d="M269.22,391a12.72,12.72,0,0,0-1.44,7.46c.48,4.33,5.35,11.9,16.6,16.12,9.84,3.69,20,0,22.86-3.37,3.61-4.33,3.85-10.34,2.89-11.55s-1.2-1.44-2.16.24-1.69,3.61-6,4.82-14,1-20.7-1.45-7.7-4.33-8.42-7.94S271.39,388.33,269.22,391Z" style="fill:#263238;stroke:#263238;stroke-linecap:round;stroke-linejoin:round"></path><path d="M369.57,371.2c0,5.43-24.16,9.82-54,9.82A234.94,234.94,0,0,1,280,378.58c-6.54-1.05-11.68-2.38-14.83-3.89-2.26-1.08-3.5-2.26-3.5-3.49,0-5.42,24.16-9.82,54-9.82a248.9,248.9,0,0,1,31.94,1.9,97.75,97.75,0,0,1,14,2.76C366.62,367.54,369.57,369.31,369.57,371.2Z" style="fill:#263238;stroke:#263238;stroke-linecap:round;stroke-linejoin:round"></path><path d="M301.16,371.56l-36,3.13c3.15,1.51,8.29,2.84,14.83,3.89l24.12-6.71Zm46.39-8.28-18,3.8-.3,1.23L361.52,366A97.75,97.75,0,0,0,347.55,363.28Z" style="fill:#fff;stroke:#263238;stroke-linecap:round;stroke-linejoin:round"></path><path d="M335.85,369c0,2-9.06,3.69-20.24,3.69s-20.24-1.65-20.24-3.69,9.06-3.68,20.24-3.68S335.85,367,335.85,369Z" style="fill:#fff;stroke:#263238;stroke-linecap:round;stroke-linejoin:round"></path><path d="M317.28,369c0,.17-.75.31-1.67.31s-1.67-.14-1.67-.31.75-.3,1.67-.3S317.28,368.87,317.28,369Z" style="fill:#fff;stroke:#263238;stroke-linecap:round;stroke-linejoin:round"></path><line x1="315.61" y1="369.03" x2="315.61" y2="367.18" style="fill:none;stroke:#263238;stroke-linecap:round;stroke-linejoin:round"></line><path d="M334.51,372.91a1,1,0,0,1-.1-2l54.3-5.58a1,1,0,1,1,.2,2l-54.29,5.58Z" style="fill:#fff;stroke:#263238;stroke-linecap:round;stroke-linejoin:round"></path><path d="M334.51,372.91l.28,3.24a1.35,1.35,0,0,0,1.5,1.23l13.11-1.47a1.36,1.36,0,0,0,1.21-1.35v-2.95Z" style="fill:#fff;stroke:#263238;stroke-linecap:round;stroke-linejoin:round"></path><path d="M391.15,372.77v2.53c0,1,2.12,1.76,4.73,1.76s4.73-.79,4.73-1.76v-2.53Z" style="fill:#263238;stroke:#263238;stroke-linecap:round;stroke-linejoin:round"></path><path d="M400.61,372.77c0,.87-2.12,1.57-4.73,1.57s-4.73-.7-4.73-1.57,2.12-1.57,4.73-1.57S400.61,371.9,400.61,372.77Z" style="fill:#263238;stroke:#263238;stroke-linecap:round;stroke-linejoin:round"></path><path d="M402.66,361.26a19.88,19.88,0,0,0-5-.05c-.82.08-11.65,1.53-11.65,2v10.25l4.49.68,13-1.71a3.35,3.35,0,0,0,2.91-3.33v-4.13C406.38,362.6,404.68,361.63,402.66,361.26Z" style="fill:#263238;stroke:#263238;stroke-linecap:round;stroke-linejoin:round"></path><path d="M372.57,377.62v2.54c0,1,2.11,1.76,4.72,1.76s4.73-.79,4.73-1.76v-2.54Z" style="fill:#263238;stroke:#263238;stroke-linecap:round;stroke-linejoin:round"></path><path d="M382,377.62c0,.87-2.11,1.57-4.73,1.57s-4.72-.7-4.72-1.57,2.11-1.56,4.72-1.56S382,376.76,382,377.62Z" style="fill:#fff;stroke:#263238;stroke-linecap:round;stroke-linejoin:round"></path><path d="M356.62,380.24v2.53c0,1,2.12,1.76,4.73,1.76s4.72-.79,4.72-1.76v-2.53Z" style="fill:#263238;stroke:#263238;stroke-linecap:round;stroke-linejoin:round"></path><ellipse cx="361.35" cy="380.24" rx="4.73" ry="1.57" style="fill:#fff;stroke:#263238;stroke-linecap:round;stroke-linejoin:round"></ellipse><path d="M338.37,384.82v1.5c0,.58,1.25,1.05,2.8,1.05s2.8-.47,2.8-1.05v-1.5Z" style="fill:#263238;stroke:#263238;stroke-linecap:round;stroke-linejoin:round"></path><path d="M344,384.82c0,.52-1.25.93-2.8.93s-2.8-.41-2.8-.93,1.25-.93,2.8-.93S344,384.31,344,384.82Z" style="fill:#fff;stroke:#263238;stroke-linecap:round;stroke-linejoin:round"></path></g><g id="freepik--Character--inject-125"><path d="M173.77,261.77s30.79,4.08,36,10.42,5.88,12.22,6.79,17,9.06,59.54,10.19,70.86,2.49,15.85.45,20.38-13.13,12-18.79,12.67-11.09.23-14.94-1.35-16.3-9.51-16.3-9.51L44.5,392.4s30.34-109.34,36-117.95,29-15.39,43-17.66S173.77,261.77,173.77,261.77Z" style="fill:#35E4EF;stroke:#263238;stroke-linecap:round;stroke-linejoin:round"></path><path d="M188.94,341.69s9.74-5.88,23.32,0" style="fill:none;stroke:#263238;stroke-linecap:round;stroke-linejoin:round"></path><path d="M189.62,336s10-10.41,21-14.26" style="fill:none;stroke:#263238;stroke-linecap:round;stroke-linejoin:round"></path><path d="M202.38,309.2c.94-1.23,1.83-2.35,2.63-3.28" style="fill:none;stroke:#263238;stroke-linecap:round;stroke-linejoin:round"></path><path d="M188.71,329.47s5.63-9.05,10.94-16.54" style="fill:none;stroke:#263238;stroke-linecap:round;stroke-linejoin:round"></path><path d="M104.54,161.15s-17.54-1.26-26.8,6.26S76,177.68,76,177.68s-15.53,5.26-15.53,14S66.21,197,66.21,197s-15,18-14.53,26.3,8,3.51,8,3.51-1.76,17.79,2.25,23.3,12.53,3.51,12.53,3.51-.75,9,3.76,8.76,11-4.51,11-4.51,1.25,15,7.77,17.54,14,1.75,16-.5a30.19,30.19,0,0,0,3.76-6s2.25,7.26,5,2,2-14,.5-16.28-11-22.8-11-26.31S125.58,192,126.09,191s29.56,6,30.56,6.76,16.53,42.84,16.53,42.84-4.51,7.51-3.76,14.28,3.51,10.52,12,2,16.78-23,16.78-23,2,13,7.77.25-.75-26.31-3-32.57-7.51-13-7.51-13,7.26,5.26,6.76-3.76-26.3-33.06-36.82-37.32-26.06-3.26-26.06-3.26,5.51-4.51-.5-4.76S97.78,140.35,104.54,161.15Z" style="fill:#263238;stroke:#263238;stroke-linecap:round;stroke-linejoin:round"></path><ellipse cx="169.22" cy="221.22" rx="12.54" ry="16.41" transform="translate(-39.62 36.93) rotate(-11.16)" style="fill:#fff;stroke:#263238;stroke-linecap:round;stroke-linejoin:round"></ellipse><path d="M113.1,265.85a344.05,344.05,0,0,0,0,36.68c1.13,17.88-1.13,24.22.9,24.45s1.81.68,4.3-2.72,11.55-18.11,12.68-17.43,1.81,4.3,2.27,7.47S143,333.77,143,333.77s6.79-13.13,8.38-16.08,1.58-3.39,3.17-7.47,2.71.91,7,6.57,10.86,14.49,11.54,11.32-4.53-15.85-5.2-28.75.9-30.12-.46-34.87S152,252.27,130.76,252.27,113.1,265.85,113.1,265.85Z" style="fill:#fff;stroke:#263238;stroke-linecap:round;stroke-linejoin:round"></path><path d="M122.33,254.59s8,26.88,12,47.71,8.6,31.47,8.6,31.47,8.6-21.06,13.36-38.49a230.51,230.51,0,0,0,6.34-32.37Z" style="fill:#adadad;stroke:#263238;stroke-linecap:round;stroke-linejoin:round"></path><path d="M161.32,267.21s-7.47,8.15-8.15,17" style="fill:none;stroke:#263238;stroke-linecap:round;stroke-linejoin:round"></path><path d="M133.91,300c.16.79.32,1.58.47,2.35,4.07,20.83,8.6,31.47,8.6,31.47s6.87-16.82,11.73-32.84C148.05,302.93,139.46,301.4,133.91,300Z" style="fill:#263238;stroke:#263238;stroke-linecap:round;stroke-linejoin:round"></path><path d="M120.32,180.18,104,224.53s6.76,20,9.77,25.3,8.77,8.77,15.28,11.77,28.06,8.27,32.57,6.52,15.28-19.29,16.28-23.3-10.52-46.35-11.52-48.35S120.32,180.18,120.32,180.18Z" style="fill:#adadad;stroke:#263238;stroke-linecap:round;stroke-linejoin:round"></path><path d="M126.84,224.53s7.51,2.75,13-2.51" style="fill:none;stroke:#263238;stroke-linecap:round;stroke-linejoin:round"></path><path d="M121.33,216.51s2-5.76,6.76-7.77,11.52-.5,11.27,1.26-5,.25-7.76.5S121.33,216.51,121.33,216.51Z" style="fill:#263238"></path><path d="M153.39,210s1.5-4.76,4.26-5,11.95,2.56,9.27,2.25C164.7,207,156.32,206.67,153.39,210Z" style="fill:#263238"></path><path d="M158.15,218.76s6.77,1.26,9.52-2.5" style="fill:none;stroke:#263238;stroke-linecap:round;stroke-linejoin:round"></path><path d="M153.39,210s-2,3.75.5,8.76" style="fill:none;stroke:#263238;stroke-linecap:round;stroke-linejoin:round"></path><path d="M161.66,232a19.93,19.93,0,0,1-6.77,4" style="fill:none;stroke:#263238;stroke-linecap:round;stroke-linejoin:round"></path><path d="M137.36,237.8s3.76,5,8.52,5.51,13.27-1.5,15.78-3" style="fill:none;stroke:#263238;stroke-linecap:round;stroke-linejoin:round"></path><line x1="139.11" y1="236.05" x2="135.86" y2="239.81" style="fill:none;stroke:#263238;stroke-linecap:round;stroke-linejoin:round"></line><path d="M95.35,223.52s-10.58-18.6-3.74-37C98,169.36,107,166.17,107.08,166s-11.89-.17-19.38,17.26,1.79,43.65,1.79,43.65Z" style="fill:#fff;stroke:#263238;stroke-linecap:round;stroke-linejoin:round"></path><path d="M212,375.88c-3.62-3.17-4.75-6.11-6.34-6.34s-2.49-1.59-7.69-.23c-3.91,1-13.4,1.91-17.91,2.29l0-.25H148.87c-21.06,0-46.64-2.26-46.64-2.26L96.8,399.2s10.41-1.59,29-3.4c11.47-1.12,29-4.92,40.7-7.66l11.82-1.62s9.73,2.26,16.07,1.36a18.81,18.81,0,0,0,10-4.53s0,2.49,1.13,3.17,10.18-1.36,11.77-1.81,1.58-.68,1.81-3.17S215.65,379.05,212,375.88Z" style="fill:#adadad;stroke:#263238;stroke-linecap:round;stroke-linejoin:round"></path><path d="M171.73,350.52s-10,7.93-9,10,5.21,7.25,5.21,8.38-5.66,15.62-1.82,18.34,16.76,8.6,31.25,8.37,21.5-11.54,23.32-14.49-1.36-19.24-4.08-26.94-14-10.64-24-9.28S171.73,350.52,171.73,350.52Z" style="fill:#fff;stroke:#263238;stroke-linecap:round;stroke-linejoin:round"></path><path d="M104.79,248.37s2.72,9.89,11.93,26.94,14,52.84,18.75,66.14,8.87,17.73,8.87,17.73S152.18,335,159,311.45s16.25-44.46,14.77-49.68" style="fill:none;stroke:#263238;stroke-linecap:round;stroke-linejoin:round"></path><path d="M171.28,241s-7.7,9.05-6.34,10.18,2.49,2,3.62,1.36,2.95-1.81,2.95-1.81-7.47,9.06-10.19,16.53.23,6.79.91,12,7.24,68.37,7.92,77,2.72,14.26,12.45,15.62,21.74-7,22.87-9.51,2-5.66.22-11.09-32.05-66.62-29.88-71.09c3.62-7.47,16.75-31.24,17.43-33.5s-10.87-7.93-12.9-9.51S172.19,238.68,171.28,241Z" style="fill:#adadad;stroke:#263238;stroke-linecap:round;stroke-linejoin:round"></path><path d="M171.28,241a4.55,4.55,0,0,1,5-1.36c2.94,1.13,7.7,5.2,7,7" style="fill:none;stroke:#263238;stroke-linecap:round;stroke-linejoin:round"></path><path d="M176,237.32s2.71-.45,6.56,2,6.79,4.75,6.57,6.11" style="fill:none;stroke:#263238;stroke-linecap:round;stroke-linejoin:round"></path><polyline points="171.51 250.68 174.9 248.19 172.87 246.6" style="fill:none;stroke:#263238;stroke-linecap:round;stroke-linejoin:round"></polyline><path d="M91.36,266.75S80,266.3,69,278.07s-13.58,29-13.58,29-11.78,47.77-16.08,67-3.85,23.54,5.21,27.16,18.11,2.27,25.13,2.27a55.2,55.2,0,0,0,12.9-1.59l13.36-35.09,2.94-13.13s10.64-12.22,10.87-31.92" style="fill:#35E4EF;stroke:#263238;stroke-linecap:round;stroke-linejoin:round"></path><path d="M90.47,319.29c-.46-1.28-.92-2.44-1.37-3.41" style="fill:none;stroke:#263238;stroke-linecap:round;stroke-linejoin:round"></path><path d="M98.83,353.69s-3.37-18.18-7-30.35" style="fill:none;stroke:#263238;stroke-linecap:round;stroke-linejoin:round"></path><path d="M85.93,364.33S75.74,353,63.74,349.84" style="fill:none;stroke:#263238;stroke-linecap:round;stroke-linejoin:round"></path><path d="M54.46,359.82a15.26,15.26,0,0,0-3.85.44" style="fill:none;stroke:#263238;stroke-linecap:round;stroke-linejoin:round"></path><path d="M77.55,365.24s-11.3-4.47-20.32-5.29" style="fill:none;stroke:#263238;stroke-linecap:round;stroke-linejoin:round"></path><path d="M104.27,368.41s-.68,26.49-1.36,29.2-1.13,2.95-3.85,4.3-25.36,3.17-29.66,3.17-9.05-7.69-5.66-22.64S74.38,358.9,79.82,358.9s23.54,7.47,23.54,7.47Z" style="fill:#fff;stroke:#263238;stroke-linecap:round;stroke-linejoin:round"></path><ellipse cx="97.72" cy="236.86" rx="12.54" ry="16.41" transform="translate(-85.7 57.95) rotate(-23.3)" style="fill:#fff;stroke:#263238;stroke-linecap:round;stroke-linejoin:round"></ellipse><ellipse cx="94.99" cy="239.39" rx="8.31" ry="10.87" transform="translate(-86.93 57.08) rotate(-23.3)" style="fill:#fff;stroke:#263238;stroke-linecap:round;stroke-linejoin:round"></ellipse><line x1="341.17" y1="380.37" x2="341.17" y2="384.53" style="fill:none;stroke:#263238;stroke-linecap:round;stroke-linejoin:round;stroke-width:2px"></line><path d="M144.34,359.18s5.45,10.57,6.48,22.16,13.29,26.94,44,27.62,44,4.09,69.9,9.89,42.62,4.77,48.07-11.59,20.8-24.89,28.4-26.89" style="fill:none;stroke:#263238;stroke-linecap:round;stroke-linejoin:round"></path></g><g id="freepik--Disk--inject-125"><polygon points="120.93 402.52 48.2 443.16 176.54 469.68 239 420.06 120.93 402.52" style="fill:#35E4EF;stroke:#263238;stroke-linecap:round;stroke-linejoin:round"></polygon><path d="M85,422.6s8.34,1.63,13.3-2.48c2.77-2.28,1.5-5.9,1.5-5.9Z" style="fill:#35E4EF;stroke:#263238;stroke-linecap:round;stroke-linejoin:round"></path><path d="M234,431.85c0,10.44-29.66,18.87-66.24,18.87C151,450.72,135.66,449,124,446c-8-2-14.33-4.57-18.2-7.47-2.77-2.08-4.3-4.35-4.3-6.71,0-10.42,29.66-18.88,66.24-18.88a197.59,197.59,0,0,1,39.21,3.65,82.89,82.89,0,0,1,17.15,5.31C230.34,424.81,234,428.21,234,431.85Z" style="fill:#263238;stroke:#263238;stroke-linecap:round;stroke-linejoin:round"></path><path d="M150,432.54l-44.2,6C109.65,441.46,116,444,124,446l29.61-12.89Zm57-15.92-22.05,7.31-.37,2.36,39.57-4.36A82.89,82.89,0,0,0,206.93,416.62Z" style="fill:#fff;stroke:#263238;stroke-linecap:round;stroke-linejoin:round"></path><path d="M192.57,427.69c0,3.91-11.13,7.08-24.85,7.08s-24.84-3.17-24.84-7.08,11.12-7.08,24.84-7.08S192.57,423.78,192.57,427.69Z" style="fill:#fff;stroke:#263238;stroke-linecap:round;stroke-linejoin:round"></path></g><g id="freepik--musical-note--inject-125"><path d="M252.84,149.53a2,2,0,0,0-.82-1.62,2,2,0,0,0-1.78-.32L229,153.89a2,2,0,0,0-1.45,1.94v24.34a6.26,6.26,0,1,0,3.95,6.37h.09V168l17.22-5.1v10.75a6.19,6.19,0,0,0-2.2-.42,6.26,6.26,0,1,0,6.25,6.26V149.53Zm-4.05,9.12-17.22,5.1v-6.41l17.22-5.1Z" style="fill:#263238"></path></g></svg>